<svg width="25" height="24" viewBox="0 0 25 24" fill="none" xmlns="http://www.w3.org/2000/svg">
<g clip-path="url(#clip0_951_2088)">
<path fill-rule="evenodd" clip-rule="evenodd" d="M4.5 0C2.29086 0 0.5 1.79086 0.5 4V20C0.5 22.2091 2.29086 24 4.5 24H20.5C22.7091 24 24.5 22.2091 24.5 20V4C24.5 1.79086 22.7091 0 20.5 0H4.5ZM14.3217 20.6485C15.2724 21.0734 16.2601 21.215 17.1647 20.3179L17.1554 20.3274C18.2908 19.2886 18.9739 17.8816 19.5 16.4651C16.8601 15.3791 16.177 11.4979 19.0569 9.73205C18.3646 8.71218 17.3124 8.14559 15.9186 8.03227C15.1761 7.97801 14.4825 8.22395 13.7946 8.46787C13.4049 8.60603 13.0171 8.74355 12.6233 8.8255C12.3142 8.80149 11.9802 8.67397 11.6031 8.52998C11.0905 8.33427 10.4982 8.10813 9.78026 8.07004C4.66656 8.33445 4.00196 15.568 8.50645 20.3179C9.30028 21.064 10.0018 21.2339 11.331 20.6485C12.3925 20.1952 13.3156 20.2141 14.3217 20.6485ZM12.531 8.01338C12.3925 5.90754 14.0632 4.16998 15.9832 4C16.2509 6.43636 13.8232 8.24946 12.531 8.01338Z" fill="#14142A"/>
</g>
<defs>
<clipPath id="clip0_951_2088">
<rect width="24" height="24" fill="white" transform="translate(0.5)"/>
</clipPath>
</defs>
</svg>
