<svg width="32" height="32" viewBox="0 0 32 32" fill="none" xmlns="http://www.w3.org/2000/svg">
<path d="M12.3864 21.1734L17.5598 16.0001L12.3864 10.8267C12.263 10.7033 12.1651 10.5567 12.0983 10.3955C12.0315 10.2342 11.9971 10.0613 11.9971 9.88673C11.9971 9.71216 12.0315 9.5393 12.0983 9.37801C12.1651 9.21672 12.263 9.07018 12.3864 8.94673C12.5099 8.82329 12.6564 8.72537 12.8177 8.65856C12.979 8.59176 13.1519 8.55737 13.3264 8.55737C13.501 8.55737 13.6739 8.59176 13.8352 8.65856C13.9964 8.72537 14.143 8.82329 14.2664 8.94673L20.3864 15.0667C20.9064 15.5867 20.9064 16.4267 20.3864 16.9467L14.2664 23.0667C14.1431 23.1903 13.9966 23.2884 13.8353 23.3553C13.674 23.4222 13.5011 23.4567 13.3264 23.4567C13.1518 23.4567 12.9789 23.4222 12.8176 23.3553C12.6563 23.2884 12.5098 23.1903 12.3864 23.0667C11.8798 22.5467 11.8664 21.6934 12.3864 21.1734Z" fill="#4E4B66"/>
</svg>
