<svg width="25" height="24" viewBox="0 0 25 24" fill="none" xmlns="http://www.w3.org/2000/svg">
<g clip-path="url(#clip0_951_2674)">
<path d="M4.88226 0C2.45468 0 0.5 1.95468 0.5 4.38226V19.6178C0.5 22.0453 2.45468 24 4.88226 24H13.1398V14.6175H10.6588V11.2395H13.1398V8.35351C13.1398 6.08611 14.6057 4.00426 17.9825 4.00426C19.3497 4.00426 20.3608 4.13551 20.3608 4.13551L20.2813 7.29002C20.2813 7.29002 19.2501 7.28028 18.125 7.28028C16.9073 7.28028 16.712 7.84135 16.712 8.77279V11.2395H20.378L20.2183 14.6175H16.712V24H20.1177C22.5453 24 24.5 22.0454 24.5 19.6178V4.38228C24.5 1.9547 22.5453 2.4e-05 20.1177 2.4e-05H4.88223L4.88226 0Z" fill="#062695"/>
</g>
<defs>
<clipPath id="clip0_951_2674">
<rect width="24" height="24" fill="white" transform="translate(0.5)"/>
</clipPath>
</defs>
</svg>
