<svg width="25" height="24" viewBox="0 0 25 24" fill="none" xmlns="http://www.w3.org/2000/svg">
<g clip-path="url(#clip0_951_2473)">
<path d="M22.25 0H2.75C1.5125 0 0.5 1.0125 0.5 2.25V21.75C0.5 22.9875 1.5125 24 2.75 24H22.25C23.4875 24 24.5 22.9875 24.5 21.75V2.25C24.5 1.0125 23.4875 0 22.25 0ZM9.5 18C6.182 18 3.5 15.3195 3.5 12C3.5 8.6805 6.182 6 9.5 6C11.1215 6 12.476 6.591 13.5215 7.5705L11.8895 9.1365C11.444 8.7105 10.6655 8.2125 9.4985 8.2125C7.4495 8.2125 5.777 9.909 5.777 12C5.777 14.091 7.451 15.7875 9.4985 15.7875C11.8745 15.7875 12.7655 14.082 12.902 13.2H9.4985V11.142H15.1655C15.2165 11.442 15.26 11.742 15.26 12.1365C15.26 15.567 12.9635 18 9.4985 18H9.5ZM21.5 12H20V13.5H18.5V12H17V10.5H18.5V9H20V10.5H21.5V12Z" fill="#BB0905"/>
</g>
<defs>
<clipPath id="clip0_951_2473">
<rect width="24" height="24" fill="white" transform="translate(0.5)"/>
</clipPath>
</defs>
</svg>
