<svg width="22" height="21" viewBox="0 0 22 21" fill="none" xmlns="http://www.w3.org/2000/svg">
<path d="M5.5 12C10 12.5 9.95681 12.3273 11 16.5C12 20.5 16 19.8333 17.5 19.5" stroke="#14142A" stroke-width="2" stroke-linejoin="round"/>
<path d="M17 20C17 20 21 16.7 21 13.125C21 10.8468 19.2091 9 17 9C14.7909 9 13 10.8468 13 13.125C13 16.7 17 20 17 20Z" stroke="#14142A" stroke-width="2" stroke-linejoin="round"/>
<path d="M5.125 12C5.125 12 9.25 8.7 9.25 5.125C9.25 2.84682 7.40318 1 5.125 1C2.84682 1 1 2.84682 1 5.125C1 8.7 5.125 12 5.125 12Z" stroke="#14142A" stroke-width="2" stroke-linejoin="round"/>
<circle cx="17" cy="13" r="1" fill="#14142A"/>
<circle cx="5" cy="5" r="1" fill="#14142A"/>
</svg>
