<svg width="167" height="165" viewBox="0 0 167 165" fill="none" xmlns="http://www.w3.org/2000/svg">
<path d="M125.838 0H119.096V6.72831H125.838V0Z" fill="#14142A"/>
<path d="M132.581 0H125.838V6.72831H132.581V0Z" fill="#14142A"/>
<path d="M139.324 0H132.581V6.72831H139.324V0Z" fill="#14142A"/>
<path d="M146.067 0H139.324V6.72831H146.067V0Z" fill="#14142A"/>
<path d="M152.809 0H146.067V6.72831H152.809V0Z" fill="#14142A"/>
<path d="M159.552 0H152.809V6.72831H159.552V0Z" fill="#14142A"/>
<path d="M166.295 0H159.552V6.72831H166.295V0Z" fill="#14142A"/>
<path d="M125.838 6.72831H119.096V13.4566H125.838V6.72831Z" fill="#14142A"/>
<path d="M166.295 6.72831H159.552V13.4566H166.295V6.72831Z" fill="#14142A"/>
<path d="M125.838 13.4566H119.096V20.1849H125.838V13.4566Z" fill="#14142A"/>
<path d="M139.324 13.4566H132.581V20.1849H139.324V13.4566Z" fill="#14142A"/>
<path d="M146.067 13.4566H139.324V20.1849H146.067V13.4566Z" fill="#14142A"/>
<path d="M152.809 13.4566H146.067V20.1849H152.809V13.4566Z" fill="#14142A"/>
<path d="M166.295 13.4566H159.552V20.1849H166.295V13.4566Z" fill="#14142A"/>
<path d="M125.838 20.1849H119.096V26.9132H125.838V20.1849Z" fill="#14142A"/>
<path d="M139.324 20.1849H132.581V26.9132H139.324V20.1849Z" fill="#14142A"/>
<path d="M146.067 20.1849H139.324V26.9132H146.067V20.1849Z" fill="#14142A"/>
<path d="M152.809 20.1849H146.067V26.9132H152.809V20.1849Z" fill="#14142A"/>
<path d="M166.295 20.1849H159.552V26.9132H166.295V20.1849Z" fill="#14142A"/>
<path d="M125.838 26.9132H119.096V33.6415H125.838V26.9132Z" fill="#14142A"/>
<path d="M139.324 26.9132H132.581V33.6415H139.324V26.9132Z" fill="#14142A"/>
<path d="M146.067 26.9132H139.324V33.6415H146.067V26.9132Z" fill="#14142A"/>
<path d="M152.809 26.9132H146.067V33.6415H152.809V26.9132Z" fill="#14142A"/>
<path d="M166.295 26.9132H159.552V33.6415H166.295V26.9132Z" fill="#14142A"/>
<path d="M125.838 33.6415H119.096V40.3699H125.838V33.6415Z" fill="#14142A"/>
<path d="M166.295 33.6415H159.552V40.3699H166.295V33.6415Z" fill="#14142A"/>
<path d="M125.838 40.3699H119.096V47.0982H125.838V40.3699Z" fill="#14142A"/>
<path d="M132.581 40.3699H125.838V47.0982H132.581V40.3699Z" fill="#14142A"/>
<path d="M139.324 40.3699H132.581V47.0982H139.324V40.3699Z" fill="#14142A"/>
<path d="M146.067 40.3699H139.324V47.0982H146.067V40.3699Z" fill="#14142A"/>
<path d="M152.809 40.3699H146.067V47.0982H152.809V40.3699Z" fill="#14142A"/>
<path d="M159.552 40.3699H152.809V47.0982H159.552V40.3699Z" fill="#14142A"/>
<path d="M166.295 40.3699H159.552V47.0982H166.295V40.3699Z" fill="#14142A"/>
<path d="M73.5418 0.547607H66.7991V7.27592H73.5418V0.547607Z" fill="#14142A"/>
<path d="M67.114 7.11938H60.3713V13.8477H67.114V7.11938Z" fill="#14142A"/>
<path d="M60.5281 13.6914H53.7854V20.4197H60.5281V13.6914Z" fill="#14142A"/>
<path d="M80.2859 13.6914H73.5432V20.4197H80.2859V13.6914Z" fill="#14142A"/>
<path d="M67.114 20.2632H60.3713V26.9915H67.114V20.2632Z" fill="#14142A"/>
<path d="M67.114 26.835H60.3713V33.5633H67.114V26.835Z" fill="#14142A"/>
<path d="M73.7 33.4067H66.9573V40.135H73.7V33.4067Z" fill="#14142A"/>
<path d="M80.2859 33.4067H73.5432V40.135H80.2859V33.4067Z" fill="#14142A"/>
<path d="M73.7 39.9788H66.9573V46.7071H73.7V39.9788Z" fill="#14142A"/>
<path d="M86.8719 39.9788H80.1291V46.7071H86.8719V39.9788Z" fill="#14142A"/>
<path d="M80.2859 46.5505H73.5432V53.2788H80.2859V46.5505Z" fill="#14142A"/>
<path d="M86.8719 33.4067H80.1291V40.135H86.8719V33.4067Z" fill="#14142A"/>
<path d="M86.8719 26.835H80.1291V33.5633H86.8719V26.835Z" fill="#14142A"/>
<path d="M86.8719 20.2632H80.1291V26.9915H86.8719V20.2632Z" fill="#14142A"/>
<path d="M93.4578 26.835H86.7151V33.5633H93.4578V26.835Z" fill="#14142A"/>
<path d="M93.4578 33.4067H86.7151V40.135H93.4578V33.4067Z" fill="#14142A"/>
<path d="M100.044 20.2632H93.301V26.9915H100.044V20.2632Z" fill="#14142A"/>
<path d="M106.63 20.2632H99.887V26.9915H106.63V20.2632Z" fill="#14142A"/>
<path d="M106.63 13.6914H99.887V20.4197H106.63V13.6914Z" fill="#14142A"/>
<path d="M113.216 20.2632H106.473V26.9915H113.216V20.2632Z" fill="#14142A"/>
<path d="M106.63 26.835H99.887V33.5633H106.63V26.835Z" fill="#14142A"/>
<path d="M106.63 33.4067H99.887V40.135H106.63V33.4067Z" fill="#14142A"/>
<path d="M113.216 33.4067H106.473V40.135H113.216V33.4067Z" fill="#14142A"/>
<path d="M113.216 39.9788H106.473V46.7071H113.216V39.9788Z" fill="#14142A"/>
<path d="M100.044 39.9788H93.301V46.7071H100.044V39.9788Z" fill="#14142A"/>
<path d="M93.4578 46.5505H86.7151V53.2788H93.4578V46.5505Z" fill="#14142A"/>
<path d="M93.4578 7.11938H86.7151V13.8477H93.4578V7.11938Z" fill="#14142A"/>
<path d="M100.044 46.5505H93.301V53.2788H100.044V46.5505Z" fill="#14142A"/>
<path d="M100.044 7.11938H93.301V13.8477H100.044V7.11938Z" fill="#14142A"/>
<path d="M100.044 0.547607H93.301V7.27592H100.044V0.547607Z" fill="#14142A"/>
<path d="M106.63 46.5505H99.887V53.2788H106.63V46.5505Z" fill="#14142A"/>
<path d="M101.141 85.9814H94.3987V92.7097H101.141V85.9814Z" fill="#14142A"/>
<path d="M107.727 99.1252H100.985V105.854H107.727V99.1252Z" fill="#14142A"/>
<path d="M127.485 85.9814H120.742V92.7097H127.485V85.9814Z" fill="#14142A"/>
<path d="M127.485 99.1252H120.742V105.854H127.485V99.1252Z" fill="#14142A"/>
<path d="M114.313 118.841H107.571V125.569H114.313V118.841Z" fill="#14142A"/>
<path d="M126.387 53.1223H119.645V59.8506H126.387V53.1223Z" fill="#14142A"/>
<path d="M119.802 53.1223H113.059V59.8506H119.802V53.1223Z" fill="#14142A"/>
<path d="M106.63 53.1223H99.887V59.8506H106.63V53.1223Z" fill="#14142A"/>
<path d="M101.141 92.5532H94.3987V99.2815H101.141V92.5532Z" fill="#14142A"/>
<path d="M107.727 105.697H100.985V112.425H107.727V105.697Z" fill="#14142A"/>
<path d="M107.727 118.841H100.985V125.569H107.727V118.841Z" fill="#14142A"/>
<path d="M60.5281 158.272H53.7854V165H60.5281V158.272Z" fill="#14142A"/>
<path d="M127.485 118.841H120.742V125.569H127.485V118.841Z" fill="#14142A"/>
<path d="M114.313 131.984H107.571V138.713H114.313V131.984Z" fill="#14142A"/>
<path d="M127.485 92.5532H120.742V99.2815H127.485V92.5532Z" fill="#14142A"/>
<path d="M114.313 112.269H107.571V118.997H114.313V112.269Z" fill="#14142A"/>
<path d="M127.485 105.697H120.742V112.425H127.485V105.697Z" fill="#14142A"/>
<path d="M114.313 125.413H107.571V132.141H114.313V125.413Z" fill="#14142A"/>
<path d="M126.387 59.6941H119.645V66.4224H126.387V59.6941Z" fill="#14142A"/>
<path d="M93.4578 53.1223H86.7151V59.8506H93.4578V53.1223Z" fill="#14142A"/>
<path d="M86.8719 53.1223H80.1291V59.8506H86.8719V53.1223Z" fill="#14142A"/>
<path d="M86.8719 59.6941H80.1291V66.4224H86.8719V59.6941Z" fill="#14142A"/>
<path d="M86.8719 66.2661H80.1291V72.9944H86.8719V66.2661Z" fill="#14142A"/>
<path d="M86.8719 72.8379H80.1291V79.5662H86.8719V72.8379Z" fill="#14142A"/>
<path d="M93.4578 79.4097H86.7151V86.138H93.4578V79.4097Z" fill="#14142A"/>
<path d="M106.63 79.4097H99.887V86.138H106.63V79.4097Z" fill="#14142A"/>
<path d="M119.802 79.4097H113.059V86.138H119.802V79.4097Z" fill="#14142A"/>
<path d="M120.899 105.697H114.156V112.425H120.899V105.697Z" fill="#14142A"/>
<path d="M127.485 131.984H120.742V138.713H127.485V131.984Z" fill="#14142A"/>
<path d="M140.657 105.697H133.914V112.425H140.657V105.697Z" fill="#14142A"/>
<path d="M140.657 112.269H133.914V118.997H140.657V112.269Z" fill="#14142A"/>
<path d="M160.415 112.269H153.672V118.997H160.415V112.269Z" fill="#14142A"/>
<path d="M140.657 118.841H133.914V125.569H140.657V118.841Z" fill="#14142A"/>
<path d="M160.415 118.841H153.672V125.569H160.415V118.841Z" fill="#14142A"/>
<path d="M140.657 125.413H133.914V132.141H140.657V125.413Z" fill="#14142A"/>
<path d="M160.415 125.413H153.672V132.141H160.415V125.413Z" fill="#14142A"/>
<path d="M107.727 151.7H100.985V158.428H107.727V151.7Z" fill="#14142A"/>
<path d="M60.5281 112.269H53.7854V118.997H60.5281V112.269Z" fill="#14142A"/>
<path d="M80.2859 112.269H73.5432V118.997H80.2859V112.269Z" fill="#14142A"/>
<path d="M160.415 131.984H153.672V138.713H160.415V131.984Z" fill="#14142A"/>
<path d="M107.727 158.272H100.985V165H107.727V158.272Z" fill="#14142A"/>
<path d="M60.5281 118.841H53.7854V125.569H60.5281V118.841Z" fill="#14142A"/>
<path d="M80.2859 118.841H73.5432V125.569H80.2859V118.841Z" fill="#14142A"/>
<path d="M86.8719 125.413H80.1291V132.141H86.8719V125.413Z" fill="#14142A"/>
<path d="M67.114 125.413H60.3713V132.141H67.114V125.413Z" fill="#14142A"/>
<path d="M167.001 131.984H160.258V138.713H167.001V131.984Z" fill="#14142A"/>
<path d="M114.313 158.272H107.571V165H114.313V158.272Z" fill="#14142A"/>
<path d="M67.114 118.841H60.3713V125.569H67.114V118.841Z" fill="#14142A"/>
<path d="M86.8719 118.841H80.1291V125.569H86.8719V118.841Z" fill="#14142A"/>
<path d="M93.4578 125.413H86.7151V132.141H93.4578V125.413Z" fill="#14142A"/>
<path d="M73.7 125.413H66.9573V132.141H73.7V125.413Z" fill="#14142A"/>
<path d="M60.5281 131.984H53.7854V138.713H60.5281V131.984Z" fill="#14142A"/>
<path d="M67.114 145.128H60.3713V151.856H67.114V145.128Z" fill="#14142A"/>
<path d="M80.2859 138.556H73.5432V145.284H80.2859V138.556Z" fill="#14142A"/>
<path d="M100.044 131.984H93.301V138.713H100.044V131.984Z" fill="#14142A"/>
<path d="M94.5554 105.697H87.8127V112.425H94.5554V105.697Z" fill="#14142A"/>
<path d="M107.727 145.128H100.985V151.856H107.727V145.128Z" fill="#14142A"/>
<path d="M140.657 151.7H133.914V158.428H140.657V151.7Z" fill="#14142A"/>
<path d="M160.415 158.272H153.672V165H160.415V158.272Z" fill="#14142A"/>
<path d="M73.7 151.7H66.9573V158.428H73.7V151.7Z" fill="#14142A"/>
<path d="M147.243 151.7H140.5V158.428H147.243V151.7Z" fill="#14142A"/>
<path d="M167.001 158.272H160.258V165H167.001V158.272Z" fill="#14142A"/>
<path d="M80.2859 151.7H73.5432V158.428H80.2859V151.7Z" fill="#14142A"/>
<path d="M127.485 151.7H120.742V158.428H127.485V151.7Z" fill="#14142A"/>
<path d="M160.415 151.7H153.672V158.428H160.415V151.7Z" fill="#14142A"/>
<path d="M167.001 145.128H160.258V151.856H167.001V145.128Z" fill="#14142A"/>
<path d="M94.5554 145.128H87.8127V151.856H94.5554V145.128Z" fill="#14142A"/>
<path d="M73.7 158.272H66.9573V165H73.7V158.272Z" fill="#14142A"/>
<path d="M86.8719 158.272H80.1291V165H86.8719V158.272Z" fill="#14142A"/>
<path d="M134.071 158.272H127.328V165H134.071V158.272Z" fill="#14142A"/>
<path d="M60.5281 151.7H53.7854V158.428H60.5281V151.7Z" fill="#14142A"/>
<path d="M140.657 131.984H133.914V138.713H140.657V131.984Z" fill="#14142A"/>
<path d="M140.657 138.556H133.914V145.284H140.657V138.556Z" fill="#14142A"/>
<path d="M140.657 99.1252H133.914V105.854H140.657V99.1252Z" fill="#14142A"/>
<path d="M153.829 138.556H147.086V145.284H153.829V138.556Z" fill="#14142A"/>
<path d="M134.071 138.556H127.328V145.284H134.071V138.556Z" fill="#14142A"/>
<path d="M134.071 131.984H127.328V138.713H134.071V131.984Z" fill="#14142A"/>
<path d="M147.243 105.697H140.5V112.425H147.243V105.697Z" fill="#14142A"/>
<path d="M147.243 112.269H140.5V118.997H147.243V112.269Z" fill="#14142A"/>
<path d="M167.001 112.269H160.258V118.997H167.001V112.269Z" fill="#14142A"/>
<path d="M147.243 118.841H140.5V125.569H147.243V118.841Z" fill="#14142A"/>
<path d="M167.001 118.841H160.258V125.569H167.001V118.841Z" fill="#14142A"/>
<path d="M147.243 125.413H140.5V132.141H147.243V125.413Z" fill="#14142A"/>
<path d="M167.001 125.413H160.258V132.141H167.001V125.413Z" fill="#14142A"/>
<path d="M114.313 151.7H107.571V158.428H114.313V151.7Z" fill="#14142A"/>
<path d="M67.114 112.269H60.3713V118.997H67.114V112.269Z" fill="#14142A"/>
<path d="M86.8719 112.269H80.1291V118.997H86.8719V112.269Z" fill="#14142A"/>
<path d="M60.5281 125.413H53.7854V132.141H60.5281V125.413Z" fill="#14142A"/>
<path d="M67.114 138.556H60.3713V145.284H67.114V138.556Z" fill="#14142A"/>
<path d="M80.2859 131.984H73.5432V138.713H80.2859V131.984Z" fill="#14142A"/>
<path d="M100.044 125.413H93.301V132.141H100.044V125.413Z" fill="#14142A"/>
<path d="M94.5554 99.1252H87.8127V105.854H94.5554V99.1252Z" fill="#14142A"/>
<path d="M107.727 138.556H100.985V145.284H107.727V138.556Z" fill="#14142A"/>
<path d="M140.657 145.128H133.914V151.856H140.657V145.128Z" fill="#14142A"/>
<path d="M60.5281 145.128H53.7854V151.856H60.5281V145.128Z" fill="#14142A"/>
<path d="M147.243 131.984H140.5V138.713H147.243V131.984Z" fill="#14142A"/>
<path d="M147.243 138.556H140.5V145.284H147.243V138.556Z" fill="#14142A"/>
<path d="M119.802 72.8379H113.059V79.5662H119.802V72.8379Z" fill="#14142A"/>
<path d="M126.387 66.2661H119.645V72.9944H126.387V66.2661Z" fill="#14142A"/>
<path d="M93.4578 66.2661H86.7151V72.9944H93.4578V66.2661Z" fill="#14142A"/>
<path d="M93.4578 72.8379H86.7151V79.5662H93.4578V72.8379Z" fill="#14142A"/>
<path d="M100.044 79.4097H93.301V86.138H100.044V79.4097Z" fill="#14142A"/>
<path d="M113.216 79.4097H106.473V86.138H113.216V79.4097Z" fill="#14142A"/>
<path d="M114.313 105.697H107.571V112.425H114.313V105.697Z" fill="#14142A"/>
<path d="M120.899 131.984H114.156V138.713H120.899V131.984Z" fill="#14142A"/>
<path d="M120.899 138.556H114.156V145.284H120.899V138.556Z" fill="#14142A"/>
<path d="M134.071 105.697H127.328V112.425H134.071V105.697Z" fill="#14142A"/>
<path d="M113.216 72.8379H106.473V79.5662H113.216V72.8379Z" fill="#14142A"/>
<path d="M126.387 79.4097H119.645V86.138H126.387V79.4097Z" fill="#14142A"/>
<path d="M126.387 72.8379H119.645V79.5662H126.387V72.8379Z" fill="#14142A"/>
<path d="M132.973 66.2661H126.231V72.9944H132.973V66.2661Z" fill="#14142A"/>
<path d="M153.829 66.2661H147.086V72.9944H153.829V66.2661Z" fill="#14142A"/>
<path d="M132.973 79.4097H126.231V86.138H132.973V79.4097Z" fill="#14142A"/>
<path d="M147.243 85.9814H140.5V92.7097H147.243V85.9814Z" fill="#14142A"/>
<path d="M167.001 66.2661H160.258V72.9944H167.001V66.2661Z" fill="#14142A"/>
<path d="M160.415 79.4097H153.672V86.138H160.415V79.4097Z" fill="#14142A"/>
<path d="M167.001 85.9814H160.258V92.7097H167.001V85.9814Z" fill="#14142A"/>
<path d="M160.415 99.1252H153.672V105.854H160.415V99.1252Z" fill="#14142A"/>
<path d="M132.973 72.8379H126.231V79.5662H132.973V72.8379Z" fill="#14142A"/>
<path d="M147.243 79.4097H140.5V86.138H147.243V79.4097Z" fill="#14142A"/>
<path d="M167.001 59.6941H160.258V66.4224H167.001V59.6941Z" fill="#14142A"/>
<path d="M160.415 72.8379H153.672V79.5662H160.415V72.8379Z" fill="#14142A"/>
<path d="M167.001 79.4097H160.258V86.138H167.001V79.4097Z" fill="#14142A"/>
<path d="M160.415 92.5532H153.672V99.2815H160.415V92.5532Z" fill="#14142A"/>
<path d="M167.001 92.5532H160.258V99.2815H167.001V92.5532Z" fill="#14142A"/>
<path d="M153.829 92.5532H147.086V99.2815H153.829V92.5532Z" fill="#14142A"/>
<path d="M153.829 53.1223H147.086V59.8506H153.829V53.1223Z" fill="#14142A"/>
<path d="M139.559 66.2661H132.817V72.9944H139.559V66.2661Z" fill="#14142A"/>
<path d="M160.415 66.2661H153.672V72.9944H160.415V66.2661Z" fill="#14142A"/>
<path d="M100.044 66.2661H93.301V72.9944H100.044V66.2661Z" fill="#14142A"/>
<path d="M80.2859 66.2661H73.5432V72.9944H80.2859V66.2661Z" fill="#14142A"/>
<path d="M73.7 66.2661H66.9573V72.9944H73.7V66.2661Z" fill="#14142A"/>
<path d="M73.7 72.8379H66.9573V79.5662H73.7V72.8379Z" fill="#14142A"/>
<path d="M80.2859 79.4097H73.5432V86.138H80.2859V79.4097Z" fill="#14142A"/>
<path d="M80.2859 85.9814H73.5432V92.7097H80.2859V85.9814Z" fill="#14142A"/>
<path d="M67.114 72.8379H60.3713V79.5662H67.114V72.8379Z" fill="#14142A"/>
<path d="M67.114 85.9814H60.3713V92.7097H67.114V85.9814Z" fill="#14142A"/>
<path d="M73.7 92.5532H66.9573V99.2815H73.7V92.5532Z" fill="#14142A"/>
<path d="M80.2859 99.1252H73.5432V105.854H80.2859V99.1252Z" fill="#14142A"/>
<path d="M87.9695 105.697H81.2268V112.425H87.9695V105.697Z" fill="#14142A"/>
<path d="M134.071 92.5532H127.328V99.2815H134.071V92.5532Z" fill="#14142A"/>
<path d="M73.7 79.4097H66.9573V86.138H73.7V79.4097Z" fill="#14142A"/>
<path d="M73.7 85.9814H66.9573V92.7097H73.7V85.9814Z" fill="#14142A"/>
<path d="M67.114 59.6941H60.3713V66.4224H67.114V59.6941Z" fill="#14142A"/>
<path d="M60.5281 59.6941H53.7854V66.4224H60.5281V59.6941Z" fill="#14142A"/>
<path d="M53.9422 59.6941H47.1995V66.4224H53.9422V59.6941Z" fill="#14142A"/>
<path d="M60.5281 53.1223H53.7854V59.8506H60.5281V53.1223Z" fill="#14142A"/>
<path d="M27.5984 72.8379H20.8557V79.5662H27.5984V72.8379Z" fill="#14142A"/>
<path d="M34.1844 105.697H27.4416V112.425H34.1844V105.697Z" fill="#14142A"/>
<path d="M60.5281 99.1252H53.7854V105.854H60.5281V99.1252Z" fill="#14142A"/>
<path d="M21.0125 72.8379H14.2698V79.5662H21.0125V72.8379Z" fill="#14142A"/>
<path d="M14.4265 66.2661H7.68383V72.9944H14.4265V66.2661Z" fill="#14142A"/>
<path d="M7.84061 59.6941H1.09789V66.4224H7.84061V59.6941Z" fill="#14142A"/>
<path d="M7.84061 85.9814H1.09789V92.7097H7.84061V85.9814Z" fill="#14142A"/>
<path d="M21.0125 99.1252H14.2698V105.854H21.0125V99.1252Z" fill="#14142A"/>
<path d="M60.5281 66.2661H53.7854V72.9944H60.5281V66.2661Z" fill="#14142A"/>
<path d="M47.3562 53.1223H40.6135V59.8506H47.3562V53.1223Z" fill="#14142A"/>
<path d="M47.3562 66.2661H40.6135V72.9944H47.3562V66.2661Z" fill="#14142A"/>
<path d="M53.9422 53.1223H47.1995V59.8506H53.9422V53.1223Z" fill="#14142A"/>
<path d="M53.9422 66.2661H47.1995V72.9944H53.9422V66.2661Z" fill="#14142A"/>
<path d="M40.7703 53.1223H34.0276V59.8506H40.7703V53.1223Z" fill="#14142A"/>
<path d="M21.0125 53.1223H14.2698V59.8506H21.0125V53.1223Z" fill="#14142A"/>
<path d="M60.5281 79.4097H53.7854V86.138H60.5281V79.4097Z" fill="#14142A"/>
<path d="M21.0125 79.4097H14.2698V86.138H21.0125V79.4097Z" fill="#14142A"/>
<path d="M40.7703 66.2661H34.0276V72.9944H40.7703V66.2661Z" fill="#14142A"/>
<path d="M40.7703 72.8379H34.0276V79.5662H40.7703V72.8379Z" fill="#14142A"/>
<path d="M27.5984 85.9814H20.8557V92.7097H27.5984V85.9814Z" fill="#14142A"/>
<path d="M27.5984 99.1252H20.8557V105.854H27.5984V99.1252Z" fill="#14142A"/>
<path d="M14.4265 92.5532H7.68383V99.2815H14.4265V92.5532Z" fill="#14142A"/>
<path d="M7.84061 99.1252H1.09789V105.854H7.84061V99.1252Z" fill="#14142A"/>
<path d="M67.114 99.1252H60.3713V105.854H67.114V99.1252Z" fill="#14142A"/>
<path d="M53.9422 72.8379H47.1995V79.5662H53.9422V72.8379Z" fill="#14142A"/>
<path d="M60.5281 46.5505H53.7854V53.2788H60.5281V46.5505Z" fill="#14142A"/>
<path d="M27.5984 66.2661H20.8557V72.9944H27.5984V66.2661Z" fill="#14142A"/>
<path d="M34.1844 99.1252H27.4416V105.854H34.1844V99.1252Z" fill="#14142A"/>
<path d="M60.5281 92.5532H53.7854V99.2815H60.5281V92.5532Z" fill="#14142A"/>
<path d="M7.84061 53.1223H1.09789V59.8506H7.84061V53.1223Z" fill="#14142A"/>
<path d="M47.3562 79.4097H40.6135V86.138H47.3562V79.4097Z" fill="#14142A"/>
<path d="M47.3562 92.5532H40.6135V99.2815H47.3562V92.5532Z" fill="#14142A"/>
<path d="M40.7703 105.697H34.0276V112.425H40.7703V105.697Z" fill="#14142A"/>
<path d="M14.4265 105.697H7.68383V112.425H14.4265V105.697Z" fill="#14142A"/>
<path d="M7.84061 79.4097H1.09789V86.138H7.84061V79.4097Z" fill="#14142A"/>
<path d="M21.0125 92.5532H14.2698V99.2815H21.0125V92.5532Z" fill="#14142A"/>
<path d="M34.1844 53.1223H27.4416V59.8506H34.1844V53.1223Z" fill="#14142A"/>
<path d="M14.4265 53.1223H7.68383V59.8506H14.4265V53.1223Z" fill="#14142A"/>
<path d="M53.9422 79.4097H47.1995V86.138H53.9422V79.4097Z" fill="#14142A"/>
<path d="M53.9422 92.5532H47.1995V99.2815H53.9422V92.5532Z" fill="#14142A"/>
<path d="M47.3562 105.697H40.6135V112.425H47.3562V105.697Z" fill="#14142A"/>
<path d="M21.0125 105.697H14.2698V112.425H21.0125V105.697Z" fill="#14142A"/>
<path d="M14.4265 79.4097H7.68383V86.138H14.4265V79.4097Z" fill="#14142A"/>
<path d="M34.1844 66.2661H27.4416V72.9944H34.1844V66.2661Z" fill="#14142A"/>
<path d="M60.5281 39.9788H53.7854V46.7071H60.5281V39.9788Z" fill="#14142A"/>
<path d="M27.5984 59.6941H20.8557V66.4224H27.5984V59.6941Z" fill="#14142A"/>
<path d="M34.1844 92.5532H27.4416V99.2815H34.1844V92.5532Z" fill="#14142A"/>
<path d="M60.5281 85.9814H53.7854V92.7097H60.5281V85.9814Z" fill="#14142A"/>
<path d="M80.2859 59.6941H73.5432V66.4224H80.2859V59.6941Z" fill="#14142A"/>
<path d="M106.63 7.11938H99.887V13.8477H106.63V7.11938Z" fill="#14142A"/>
<path d="M106.63 0.547607H99.887V7.27592H106.63V0.547607Z" fill="#14142A"/>
<path d="M113.216 7.11938H106.473V13.8477H113.216V7.11938Z" fill="#14142A"/>
<path d="M7.84038 0.548096H1.09766V7.2764H7.84038V0.548096Z" fill="#14142A"/>
<path d="M14.5831 0.548096H7.84038V7.2764H14.5831V0.548096Z" fill="#14142A"/>
<path d="M21.3258 0.548096H14.5831V7.2764H21.3258V0.548096Z" fill="#14142A"/>
<path d="M28.0685 0.548096H21.3258V7.2764H28.0685V0.548096Z" fill="#14142A"/>
<path d="M34.8113 0.548096H28.0685V7.2764H34.8113V0.548096Z" fill="#14142A"/>
<path d="M41.554 0.548096H34.8113V7.2764H41.554V0.548096Z" fill="#14142A"/>
<path d="M48.2967 0.548096H41.554V7.2764H48.2967V0.548096Z" fill="#14142A"/>
<path d="M7.84038 7.2764H1.09766V14.0047H7.84038V7.2764Z" fill="#14142A"/>
<path d="M48.2967 7.2764H41.554V14.0047H48.2967V7.2764Z" fill="#14142A"/>
<path d="M7.84038 14.0047H1.09766V20.733H7.84038V14.0047Z" fill="#14142A"/>
<path d="M21.3258 14.0047H14.5831V20.733H21.3258V14.0047Z" fill="#14142A"/>
<path d="M28.0685 14.0047H21.3258V20.733H28.0685V14.0047Z" fill="#14142A"/>
<path d="M34.8113 14.0047H28.0685V20.733H34.8113V14.0047Z" fill="#14142A"/>
<path d="M48.2967 14.0047H41.554V20.733H48.2967V14.0047Z" fill="#14142A"/>
<path d="M7.84038 20.733H1.09766V27.4613H7.84038V20.733Z" fill="#14142A"/>
<path d="M21.3258 20.733H14.5831V27.4613H21.3258V20.733Z" fill="#14142A"/>
<path d="M28.0685 20.733H21.3258V27.4613H28.0685V20.733Z" fill="#14142A"/>
<path d="M34.8113 20.733H28.0685V27.4613H34.8113V20.733Z" fill="#14142A"/>
<path d="M48.2967 20.733H41.554V27.4613H48.2967V20.733Z" fill="#14142A"/>
<path d="M7.84038 27.4613H1.09766V34.1896H7.84038V27.4613Z" fill="#14142A"/>
<path d="M21.3258 27.4613H14.5831V34.1896H21.3258V27.4613Z" fill="#14142A"/>
<path d="M28.0685 27.4613H21.3258V34.1896H28.0685V27.4613Z" fill="#14142A"/>
<path d="M34.8113 27.4613H28.0685V34.1896H34.8113V27.4613Z" fill="#14142A"/>
<path d="M48.2967 27.4613H41.554V34.1896H48.2967V27.4613Z" fill="#14142A"/>
<path d="M7.84038 34.1896H1.09766V40.9179H7.84038V34.1896Z" fill="#14142A"/>
<path d="M48.2967 34.1896H41.554V40.9179H48.2967V34.1896Z" fill="#14142A"/>
<path d="M7.84038 40.9179H1.09766V47.6463H7.84038V40.9179Z" fill="#14142A"/>
<path d="M14.5831 40.9179H7.84038V47.6463H14.5831V40.9179Z" fill="#14142A"/>
<path d="M21.3258 40.9179H14.5831V47.6463H21.3258V40.9179Z" fill="#14142A"/>
<path d="M28.0685 40.9179H21.3258V47.6463H28.0685V40.9179Z" fill="#14142A"/>
<path d="M34.8113 40.9179H28.0685V47.6463H34.8113V40.9179Z" fill="#14142A"/>
<path d="M41.554 40.9179H34.8113V47.6463H41.554V40.9179Z" fill="#14142A"/>
<path d="M48.2967 40.9179H41.554V47.6463H48.2967V40.9179Z" fill="#14142A"/>
<path d="M6.74272 117.745H0V124.474H6.74272V117.745Z" fill="#14142A"/>
<path d="M13.4854 117.745H6.74272V124.474H13.4854V117.745Z" fill="#14142A"/>
<path d="M20.2282 117.745H13.4854V124.474H20.2282V117.745Z" fill="#14142A"/>
<path d="M26.9709 117.745H20.2282V124.474H26.9709V117.745Z" fill="#14142A"/>
<path d="M33.7136 117.745H26.9709V124.474H33.7136V117.745Z" fill="#14142A"/>
<path d="M40.4563 117.745H33.7136V124.474H40.4563V117.745Z" fill="#14142A"/>
<path d="M47.1991 117.745H40.4563V124.474H47.1991V117.745Z" fill="#14142A"/>
<path d="M6.74272 124.474H0V131.202H6.74272V124.474Z" fill="#14142A"/>
<path d="M47.1991 124.474H40.4563V131.202H47.1991V124.474Z" fill="#14142A"/>
<path d="M6.74272 131.202H0V137.93H6.74272V131.202Z" fill="#14142A"/>
<path d="M20.2282 131.202H13.4854V137.93H20.2282V131.202Z" fill="#14142A"/>
<path d="M26.9709 131.202H20.2282V137.93H26.9709V131.202Z" fill="#14142A"/>
<path d="M33.7136 131.202H26.9709V137.93H33.7136V131.202Z" fill="#14142A"/>
<path d="M47.1991 131.202H40.4563V137.93H47.1991V131.202Z" fill="#14142A"/>
<path d="M6.74272 137.93H0V144.659H6.74272V137.93Z" fill="#14142A"/>
<path d="M20.2282 137.93H13.4854V144.659H20.2282V137.93Z" fill="#14142A"/>
<path d="M26.9709 137.93H20.2282V144.659H26.9709V137.93Z" fill="#14142A"/>
<path d="M33.7136 137.93H26.9709V144.659H33.7136V137.93Z" fill="#14142A"/>
<path d="M47.1991 137.93H40.4563V144.659H47.1991V137.93Z" fill="#14142A"/>
<path d="M6.74272 144.659H0V151.387H6.74272V144.659Z" fill="#14142A"/>
<path d="M20.2282 144.659H13.4854V151.387H20.2282V144.659Z" fill="#14142A"/>
<path d="M26.9709 144.659H20.2282V151.387H26.9709V144.659Z" fill="#14142A"/>
<path d="M33.7136 144.659H26.9709V151.387H33.7136V144.659Z" fill="#14142A"/>
<path d="M47.1991 144.659H40.4563V151.387H47.1991V144.659Z" fill="#14142A"/>
<path d="M6.74272 151.387H0V158.115H6.74272V151.387Z" fill="#14142A"/>
<path d="M47.1991 151.387H40.4563V158.115H47.1991V151.387Z" fill="#14142A"/>
<path d="M6.74272 158.115H0V164.844H6.74272V158.115Z" fill="#14142A"/>
<path d="M13.4854 158.115H6.74272V164.844H13.4854V158.115Z" fill="#14142A"/>
<path d="M20.2282 158.115H13.4854V164.844H20.2282V158.115Z" fill="#14142A"/>
<path d="M26.9709 158.115H20.2282V164.844H26.9709V158.115Z" fill="#14142A"/>
<path d="M33.7136 158.115H26.9709V164.844H33.7136V158.115Z" fill="#14142A"/>
<path d="M40.4563 158.115H33.7136V164.844H40.4563V158.115Z" fill="#14142A"/>
<path d="M47.1991 158.115H40.4563V164.844H47.1991V158.115Z" fill="#14142A"/>
</svg>
