<svg width="24" height="24" viewBox="0 0 24 24" fill="none" xmlns="http://www.w3.org/2000/svg">
<path d="M12 20C16.1421 20 19.5 16.6421 19.5 12.5C19.5 8.35785 16.1421 5 12 5C7.85785 5 4.5 8.35785 4.5 12.5C4.5 16.6421 7.85785 20 12 20Z" stroke="#14142A" stroke-width="2" stroke-linecap="round" stroke-linejoin="round"/>
<path d="M10.0001 5.5C10.9025 6.00415 11.7501 6.75 11.6791 7.7227C11.6223 8.5 10.9575 8.67345 10.8184 9.23555C10.6795 9.79765 11.4837 10.4108 10.1232 11.318C9.2162 11.9227 6.4855 13.0724 4.5 12" stroke="#14142A" stroke-width="2" stroke-linecap="round"/>
<path d="M4.75007 12.25C3.25007 13.1942 1.03413 15.7606 2.00029 17.5C3.25001 19.75 8.00021 17.8453 13.5001 13.5C19 9.15471 21.1146 2.80322 21.1146 2.80322L18.5003 3.50001" stroke="#14142A" stroke-width="2" stroke-linecap="round" stroke-linejoin="round"/>
<path d="M13.0003 20C13.0003 20 13.2502 17.5 15 16C16.7499 14.5 19.0004 14.5 19.0004 14.5" stroke="#14142A" stroke-width="2" stroke-linecap="round"/>
</svg>
